#N canvas 555 207 449 367 10;
#X obj 62 342 sdac~;
#X obj 89 311 r \$0dac;
#X obj 187 39 r \$0trigger;
#X obj 62 49 r \$0note;
#X obj 62 110 blsaw~;
#X obj 62 76 mtof;
#X obj 62 250 *~;
#X msg 172 313 1;
#X obj 292 247 s \$0note;
#X obj 187 60 t b f;
#X obj 187 127 *~;
#X obj 366 149 s \$0trigger;
#X msg 366 117 1;
#X msg 292 190 48;
#X obj 62 206 bob~;
#X obj 72 163 *~ 1000;
#X obj 366 91 metro 250;
#X obj 366 71 tgl 15 0 empty empty empty 17 7 0 10 -262144 -1 -1 0
1;
#X obj 109 110 blsaw~;
#X obj 109 89 * 1.01;
#X msg 262 190 45;
#X msg 322 190 52;
#X obj 187 87 ar4~ 1 1000;
#X msg 352 190 62;
#X msg 382 190 64;
#X obj 62 282 *~ 0.1;
#X obj 83 185 sig~ 2;
#X connect 1 0 0 1;
#X connect 2 0 9 0;
#X connect 3 0 5 0;
#X connect 4 0 14 0;
#X connect 5 0 4 0;
#X connect 5 0 19 0;
#X connect 6 0 25 0;
#X connect 7 0 0 1;
#X connect 9 0 22 0;
#X connect 9 1 10 1;
#X connect 10 0 6 1;
#X connect 10 0 15 0;
#X connect 12 0 11 0;
#X connect 13 0 8 0;
#X connect 14 0 6 0;
#X connect 15 0 14 1;
#X connect 16 0 12 0;
#X connect 17 0 16 0;
#X connect 18 0 14 0;
#X connect 19 0 18 0;
#X connect 20 0 8 0;
#X connect 21 0 8 0;
#X connect 22 0 10 0;
#X connect 23 0 8 0;
#X connect 24 0 8 0;
#X connect 25 0 0 0;
#X connect 26 0 14 2;
