#N canvas 555 207 449 367 10;
#X obj 62 312 sdac~;
#X obj 89 281 r \$0dac;
#X obj 187 39 r \$0trigger;
#X obj 62 49 r \$0note;
#X obj 62 110 blsaw~;
#X obj 62 76 mtof;
#X obj 62 250 *~;
#X msg 172 283 1;
#X obj 292 227 s \$0note;
#X obj 187 60 t b f;
#X obj 187 127 *~;
#X obj 353 186 s \$0trigger;
#X msg 353 154 1;
#X obj 187 87 ar4~ 1 1000;
#X msg 292 190 48;
#X obj 62 206 bob~;
#X obj 72 163 *~ 1000;
#X obj 83 185 sig~ 2;
#X connect 1 0 0 1;
#X connect 2 0 9 0;
#X connect 3 0 5 0;
#X connect 4 0 15 0;
#X connect 5 0 4 0;
#X connect 6 0 0 0;
#X connect 7 0 0 1;
#X connect 9 0 13 0;
#X connect 9 1 10 1;
#X connect 10 0 6 1;
#X connect 10 0 16 0;
#X connect 12 0 11 0;
#X connect 13 0 10 0;
#X connect 14 0 8 0;
#X connect 15 0 6 0;
#X connect 16 0 15 1;
#X connect 17 0 15 2;
