#N canvas 838 235 585 471 10;
#X obj 173 125 adc~;
#X obj 173 185 bonk~;
#X floatatom 200 295 5 0 0 0 - - -, f 5;
#X obj 200 222 unpack f f f;
#X floatatom 264 301 5 0 0 0 - - -, f 5;
#X floatatom 269 252 5 0 0 0 - - -, f 5;
#X obj 234 354 s \$0volume-note;
#X connect 0 0 1 0;
#X connect 1 1 3 0;
#X connect 3 0 2 0;
#X connect 3 1 4 0;
#X connect 3 1 6 0;
#X connect 3 2 5 0;
