#N canvas 733 348 526 417 10;
#N canvas 0 22 450 278 (subpatch) 0;
#X array \$0array 44100 float 2;
#X coords 0 1 44100 -1 200 140 1;
#X restore 27 48 graph;
#X obj 287 121 adc~;
#X obj 299 188 metro 1000;
#X obj 138 301 tabplay~ \$0array;
#X obj 287 216 tabwrite~ \$0array;
#X obj 138 350 sdac~;
#X obj 177 350 r \$0dac;
#X obj 138 268 metro 1000;
#X obj 299 165 r \$0record-toggle;
#X obj 138 235 loadbang;
#X obj 358 115 tgl 15 0 empty empty empty 17 7 0 10 -262144 -1 -1 0
1;
#X msg 190 322 1;
#X obj 200 236 tgl 15 0 empty empty empty 17 7 0 10 -262144 -1 -1 0
1;
#X connect 1 0 4 0;
#X connect 2 0 4 0;
#X connect 3 0 5 0;
#X connect 6 0 5 1;
#X connect 7 0 3 0;
#X connect 8 0 2 0;
#X connect 9 0 7 0;
#X connect 10 0 2 0;
#X connect 11 0 5 1;
#X connect 12 0 7 0;
