#N canvas 0 31 555 606 10;
#X text 101 83 inlets:;
#X text 115 101 1) float 0-1: distance between lists;
#X text 117 122 2) list 1;
#X text 117 141 2) list 2;
#X text 95 30 list-inter: elementwise linear interpolation between
two (float) lists.;
#X obj 228 153 hsl 128 15 0 1 0 0 empty empty factor_(0-1) -2 -6 0
10 -262144 -1 -1 0 0;
#X obj 225 359 vsl 15 128 0 10 0 0 empty empty empty 0 -8 0 8 -262144
-1 -1 0 1;
#X obj 264 359 vsl 15 128 0 10 0 0 empty empty empty 0 -8 0 8 -262144
-1 -1 0 1;
#X obj 304 359 vsl 15 128 0 10 0 0 empty empty empty 0 -8 0 8 -262144
-1 -1 0 1;
#X floatatom 225 333 5 0 0 0 - - -;
#X floatatom 264 333 5 0 0 0 - - -;
#X floatatom 304 333 5 0 0 0 - - -;
#X obj 225 282 list-inter;
#X text 87 519 Also see [triple-scale] \, but [list-inter] works for
float lists of arbitrary length.;
#X obj 225 311 unpack 0 0 0 0;
#X obj 343 360 vsl 15 128 0 10 0 0 empty empty empty 0 -8 0 8 -262144
-1 -1 0 1;
#X floatatom 343 334 5 0 0 0 - - -;
#X obj 164 307 print;
#X text 96 63 Non-float elements in first list will be kept.;
#X msg 257 181 5 2 9 3;
#X msg 267 207 5 x 9 3;
#X text 326 207 careful!;
#X msg 290 255 8 7 1 10;
#N canvas 432 135 494 396 META 0;
#X text 12 25 LICENSE SIBSD;
#X text 12 155 AUTHOR Frank Barknecht;
#X text 12 175 HELP_PATCH_AUTHORS Frank Barknecht. "pd meta" information
added by Jonathan Wilkes for Pd version 0.42.;
#X text 12 5 KEYWORDS control list_op;
#X text 12 135 OUTLET_0 list;
#X text 12 45 DESCRIPTION elementwise linear interpolation between
two (float) lists;
#X text 12 75 INLET_0 float;
#X text 12 95 INLET_1 list;
#X text 12 115 INLET_2 list;
#X restore 497 577 pd META;
#X connect 5 0 12 0;
#X connect 9 0 6 0;
#X connect 10 0 7 0;
#X connect 11 0 8 0;
#X connect 12 0 14 0;
#X connect 12 0 17 0;
#X connect 14 0 9 0;
#X connect 14 1 10 0;
#X connect 14 2 11 0;
#X connect 14 3 16 0;
#X connect 16 0 15 0;
#X connect 19 0 12 1;
#X connect 20 0 12 1;
#X connect 22 0 12 2;
