#N canvas 0 0 450 300 10;
#X obj 122 170 list-clip 2 8;
#X obj 122 204 print;
#X text 101 47 list-clip:;
#X obj 189 49 clip;
#X text 231 50 for lists;
#X msg 122 102 1 2 3 SYMBOL 4 5 6 7 8 9 10;
#X floatatom 165 144 5 0 0 0 - - -;
#X floatatom 208 145 5 0 0 0 - - -;
#N canvas 416 170 494 396 META 0;
#X text 12 5 KEYWORDS control list_op;
#X text 12 25 LICENSE SIBSD;
#X text 12 145 AUTHOR Frank Barknecht;
#X text 12 125 OUTLET_0 list;
#X text 12 165 HELP_PATCH_AUTHORS Frank Barknecht. "pd meta" information
added by Jonathan Wilkes for Pd version 0.42.;
#X text 12 45 DESCRIPTION clip for lists;
#X text 12 85 INLET_1 float;
#X text 12 105 INLET_2 float;
#X text 12 65 INLET_0 anything;
#X restore 387 267 pd META;
#X connect 0 0 1 0;
#X connect 5 0 0 0;
#X connect 6 0 0 1;
#X connect 7 0 0 2;
