#N canvas 229 30 753 746 10;
#X obj 133 132 inlet;
#X text 211 80 list-invint: Inverse intervals of a float list;
#X msg 76 82 10 11 13 20;
#X obj 133 351 outlet;
#X obj 133 302 list-map;
#X obj 217 319 -;
#X obj 242 256 * 2;
#X obj 217 289 swap;
#X obj 133 166 t a a;
#X obj 242 230 list split 1;
#X connect 0 0 8 0;
#X connect 2 0 8 0;
#X connect 4 0 3 0;
#X connect 4 1 7 0;
#X connect 5 0 4 1;
#X connect 6 0 7 1;
#X connect 7 0 5 0;
#X connect 7 1 5 1;
#X connect 8 0 4 0;
#X connect 8 1 9 0;
#X connect 9 0 6 0;
