#N canvas 0 26 481 399 10;
#X msg 102 183 1 2 3;
#X msg 156 290 bang;
#X msg 101 215 bang;
#X msg 102 161 a b c;
#X msg 102 139 x y z;
#X msg 154 259 A B C;
#X obj 68 323 list-extend;
#X obj 68 363 print LIST-EXTEND;
#X text 44 27 list-extend;
#X text 60 52 Build a list from incoming lists or elements.;
#X floatatom 101 119 5 0 0 0 - - -;
#X text 97 97 Add elements or lists and output stored list.;
#X text 146 219 output stored list;
#X text 201 261 set complete stored list;
#X text 201 292 set stored list to empty list (==reset);
#N canvas 491 26 494 396 META 0;
#X text 12 5 KEYWORDS control list_op;
#X text 12 25 LICENSE SIBSD;
#X text 12 125 AUTHOR Frank Barknecht;
#X text 12 145 HELP_PATCH_AUTHORS Frank Barknecht. "pd meta" information
added by Jonathan Wilkes for Pd version 0.42.;
#X text 12 105 OUTLET_0 list;
#X text 12 45 DESCRIPTION build a list from incoming lists or elements
;
#X text 12 65 INLET_0 anything;
#X text 12 85 INLET_1 anything;
#X restore 426 372 pd META;
#X connect 0 0 6 0;
#X connect 1 0 6 1;
#X connect 2 0 6 0;
#X connect 3 0 6 0;
#X connect 4 0 6 0;
#X connect 5 0 6 1;
#X connect 6 0 7 0;
#X connect 10 0 6 0;
