#N canvas 259 173 646 615 10;
#X obj 168 29 inlet;
#X obj 168 379 sqrt;
#X obj 168 400 outlet;
#X obj 361 160 list length;
#X obj 168 358 /;
#X obj 186 185 -;
#X obj 186 230 t f f;
#X obj 186 252 *;
#X obj 186 159 list-drip;
#X obj 186 279 +;
#X obj 217 280 f;
#X msg 242 256 0;
#X obj 168 318 f;
#X obj 168 57 t b a a a b;
#X obj 283 160 list-mean;
#X connect 0 0 13 0;
#X connect 1 0 2 0;
#X connect 3 0 4 1;
#X connect 4 0 1 0;
#X connect 5 0 6 0;
#X connect 6 0 7 0;
#X connect 6 1 7 1;
#X connect 7 0 9 0;
#X connect 8 0 5 0;
#X connect 9 0 10 0;
#X connect 9 0 12 1;
#X connect 10 0 9 1;
#X connect 11 0 9 1;
#X connect 12 0 4 0;
#X connect 13 0 12 0;
#X connect 13 1 8 0;
#X connect 13 2 14 0;
#X connect 13 3 3 0;
#X connect 13 4 11 0;
#X connect 14 0 5 1;
