#N canvas 273 242 585 471 10;
#X obj 86 149 osc~;
#X obj 181 115 ar4~ 10 1000;
#X obj 80 323 sdac~;
#X obj 125 324 r \$0dac;
#X obj 92 27 r \$0note;
#X obj 92 58 mtof;
#X obj 13 112 noise~;
#X obj 13 146 *~ 0.1;
#X obj 86 236 *~;
#X obj 154 60 t b;
#X obj 82 286 *~ 0.1;
#X connect 0 0 8 0;
#X connect 1 0 8 1;
#X connect 3 0 2 1;
#X connect 4 0 5 0;
#X connect 4 0 9 0;
#X connect 5 0 0 0;
#X connect 6 0 7 0;
#X connect 7 0 8 0;
#X connect 8 0 10 0;
#X connect 9 0 1 0;
#X connect 10 0 2 0;
