#N canvas 0 22 450 300 10;
#X obj 83 268 outlet~;
#X obj 83 49 inlet;
#X obj 123 49 inlet;
#X obj 163 49 inlet;
#X obj 123 128 pack \$1 \$2;
#X obj 163 92 t b a;
#X msg 83 205 1 \$1 \, 0 \$2 \$1;
#X obj 83 184 list trim;
#X obj 83 162 list append;
#X obj 123 20 loadbang;
#X obj 83 234 vline2~;
#X connect 1 0 8 0;
#X connect 2 0 4 0;
#X connect 3 0 5 0;
#X connect 4 0 8 1;
#X connect 5 0 4 0;
#X connect 5 1 4 1;
#X connect 6 0 10 0;
#X connect 7 0 6 0;
#X connect 8 0 7 0;
#X connect 9 0 4 0;
#X connect 10 0 0 0;
