#N canvas 0 22 437 337 10;
#X obj 106 125 until;
#X obj 106 213 list-extend;
#X obj 85 56 t b b b;
#X obj 85 235 list;
#X obj 85 271 list-drip;
#X obj 106 184 int;
#X obj 85 303 outlet;
#X obj 106 154 array-get-random \$1;
#X obj 106 89 i \$2;
#X obj 85 31 inlet;
#X obj 146 29 inlet;
#X connect 0 0 7 0;
#X connect 1 0 3 1;
#X connect 2 0 3 0;
#X connect 2 1 8 0;
#X connect 2 2 1 1;
#X connect 3 0 4 0;
#X connect 4 0 6 0;
#X connect 5 0 1 0;
#X connect 7 0 5 0;
#X connect 8 0 0 0;
#X connect 9 0 2 0;
#X connect 10 0 8 1;
