#N canvas 322 26 961 797 10;
#X obj 224 78 inlet~;
#X obj 455 105 samplerate~;
#X obj 455 162 / 2;
#X obj 455 40 loadbang;
#X msg 418 57 bang;
#X obj 441 212 /~;
#X obj 124 738 outlet~;
#X obj 123 697 lin-xfade.mmb~;
#X obj 269 662 /~ 1;
#X obj 375 79 inlet;
#X obj 269 638 -~ 30;
#X obj 549 94 v \$1-bl-maxsamprate.mmb;
#X obj 455 135 min 44100;
#X obj 455 72 t b b;
#X obj 549 121 sel 0;
#X msg 549 145 44100;
#X obj 549 61 r \$1-bl-getmaxsamprate.mmb;
#N canvas 495 50 818 674 sawtooth 0;
#X obj 80 383 tabread4~ \$1-bl-sawtable.mmb;
#X obj 262 384 tabread4~ \$1-bl-sawtable.mmb;
#X obj 467 317 expr~ if($v1<1 \, $v1 \, 2-$v1);
#X obj 404 103 expr~ abs(fmod($v1 \, 2));
#X obj 100 307 *~ 1027;
#X obj 100 330 +~ 1;
#X obj 100 245 -~;
#X obj 100 280 clip~ 0 1;
#X obj 176 112 expr~ int($v1);
#X obj 282 307 *~ 1027;
#X obj 282 330 +~ 1;
#X obj 282 245 -~;
#X obj 282 280 clip~ 0 1;
#X obj 80 111 *~ 1024;
#X obj 80 356 +~;
#X obj 262 356 +~;
#X obj 167 484 lin-xfade.mmb~;
#X obj 80 46 inlet~;
#X text 95 64 phasor;
#X obj 290 46 inlet~;
#X text 338 52 number of harmonics;
#X obj 167 522 outlet~;
#X text 543 340 ping pong crossfader;
#X text 439 383 evens;
#X text 41 382 odds;
#X text 447 162 <-- these guys make sure that one tabread is using
on less harmonic than the other. If int(harmonics) is even \, then
odds has on less harmonic \, and vise versa. They switch when the crossfader
brings them to silence.;
#X obj 163 243 r \$0-maxharmonics;
#X obj 339 161 expr~ $v1<1;
#X obj 340 200 expr~ $v1>1;
#X connect 0 0 16 0;
#X connect 1 0 16 1;
#X connect 2 0 16 2;
#X connect 3 0 2 0;
#X connect 3 0 27 0;
#X connect 3 0 28 0;
#X connect 4 0 5 0;
#X connect 5 0 14 1;
#X connect 6 0 7 0;
#X connect 7 0 4 0;
#X connect 8 0 6 0;
#X connect 8 0 11 0;
#X connect 9 0 10 0;
#X connect 10 0 15 1;
#X connect 11 0 12 0;
#X connect 12 0 9 0;
#X connect 13 0 14 0;
#X connect 13 0 15 0;
#X connect 14 0 0 0;
#X connect 15 0 1 0;
#X connect 16 0 21 0;
#X connect 17 0 13 0;
#X connect 19 0 8 0;
#X connect 19 0 3 0;
#X connect 26 0 7 2;
#X connect 26 0 12 2;
#X connect 27 0 6 1;
#X connect 28 0 11 1;
#X restore 173 339 pd sawtooth;
#X obj 490 209 / 30;
#X obj 490 234 int;
#X obj 490 279 s \$0-maxharmonics;
#X obj 490 256 - 1;
#X obj 294 78 inlet~;
#X obj 279 267 +~;
#X obj 294 196 clip~ 0 1;
#X obj 279 293 +~ 1;
#X obj 279 313 wrap~;
#N canvas 495 50 818 674 sawtooth 0;
#X obj 80 383 tabread4~ \$1-bl-sawtable.mmb;
#X obj 262 384 tabread4~ \$1-bl-sawtable.mmb;
#X obj 467 317 expr~ if($v1<1 \, $v1 \, 2-$v1);
#X obj 404 103 expr~ abs(fmod($v1 \, 2));
#X obj 100 307 *~ 1027;
#X obj 100 330 +~ 1;
#X obj 100 245 -~;
#X obj 100 280 clip~ 0 1;
#X obj 176 112 expr~ int($v1);
#X obj 282 307 *~ 1027;
#X obj 282 330 +~ 1;
#X obj 282 245 -~;
#X obj 282 280 clip~ 0 1;
#X obj 80 111 *~ 1024;
#X obj 80 356 +~;
#X obj 262 356 +~;
#X obj 167 484 lin-xfade.mmb~;
#X obj 80 46 inlet~;
#X text 95 64 phasor;
#X obj 290 46 inlet~;
#X text 338 52 number of harmonics;
#X obj 167 522 outlet~;
#X text 543 340 ping pong crossfader;
#X text 439 383 evens;
#X text 41 382 odds;
#X text 447 162 <-- these guys make sure that one tabread is using
on less harmonic than the other. If int(harmonics) is even \, then
odds has on less harmonic \, and vise versa. They switch when the crossfader
brings them to silence.;
#X obj 163 243 r \$0-maxharmonics;
#X obj 339 161 expr~ $v1<1;
#X obj 340 200 expr~ $v1>1;
#X connect 0 0 16 0;
#X connect 1 0 16 1;
#X connect 2 0 16 2;
#X connect 3 0 2 0;
#X connect 3 0 27 0;
#X connect 3 0 28 0;
#X connect 4 0 5 0;
#X connect 5 0 14 1;
#X connect 6 0 7 0;
#X connect 7 0 4 0;
#X connect 8 0 6 0;
#X connect 8 0 11 0;
#X connect 9 0 10 0;
#X connect 10 0 15 1;
#X connect 11 0 12 0;
#X connect 12 0 9 0;
#X connect 13 0 14 0;
#X connect 13 0 15 0;
#X connect 14 0 0 0;
#X connect 15 0 1 0;
#X connect 16 0 21 0;
#X connect 17 0 13 0;
#X connect 19 0 8 0;
#X connect 19 0 3 0;
#X connect 26 0 7 2;
#X connect 26 0 12 2;
#X connect 27 0 6 1;
#X connect 28 0 11 1;
#X restore 279 339 pd sawtooth;
#X obj 228 492 -~;
#X obj 425 479 -~ 0.5;
#X obj 178 623 +~;
#X text 478 486 adjust for DC offset and amplitude;
#X obj 57 465 expr~ $v1>$v2;
#X obj 294 236 expr~ 1-$v1;
#X obj 424 502 *~ 2;
#X obj 57 502 *~ -2;
#X obj 57 530 +~ 1;
#X obj 173 204 vphasor.mmb~;
#X connect 0 0 5 1;
#X connect 0 0 10 0;
#X connect 0 0 37 0;
#X connect 1 0 12 0;
#X connect 2 0 5 0;
#X connect 2 0 18 0;
#X connect 3 0 13 0;
#X connect 4 0 1 0;
#X connect 5 0 17 1;
#X connect 5 0 27 1;
#X connect 7 0 6 0;
#X connect 8 0 7 2;
#X connect 9 0 37 1;
#X connect 10 0 8 0;
#X connect 11 0 14 0;
#X connect 12 0 2 0;
#X connect 13 0 1 0;
#X connect 13 1 11 0;
#X connect 14 0 15 0;
#X connect 14 1 12 1;
#X connect 15 0 12 1;
#X connect 16 0 11 0;
#X connect 17 0 28 0;
#X connect 18 0 19 0;
#X connect 19 0 21 0;
#X connect 21 0 20 0;
#X connect 22 0 24 0;
#X connect 23 0 25 0;
#X connect 24 0 29 0;
#X connect 24 0 32 1;
#X connect 24 0 33 0;
#X connect 25 0 26 0;
#X connect 26 0 27 0;
#X connect 27 0 28 1;
#X connect 28 0 30 0;
#X connect 29 0 34 0;
#X connect 30 0 7 1;
#X connect 32 0 35 0;
#X connect 33 0 23 1;
#X connect 34 0 30 1;
#X connect 35 0 36 0;
#X connect 36 0 7 0;
#X connect 37 0 17 0;
#X connect 37 0 23 0;
#X connect 37 0 32 0;
