#N canvas 0 22 450 300 10;
#X obj 60 50 inlet~;
#X obj 170 50 inlet~;
#X obj 280 50 inlet~;
#X obj 76 165 *~;
#X obj 164 164 *~;
#X obj 274 89 clip~ 0 1;
#X obj 101 121 expr~ 1-$v1;
#X obj 126 215 outlet~;
#X text 342 227 .mmb;
#X connect 0 0 3 0;
#X connect 1 0 4 0;
#X connect 2 0 5 0;
#X connect 3 0 7 0;
#X connect 4 0 7 0;
#X connect 5 0 6 0;
#X connect 5 0 4 1;
#X connect 6 0 3 1;
