#N canvas 0 22 450 300 10;
#X obj 133 181 list-loop;
#X msg 184 137 1 1 2 3 5 8 13 21;
#X obj 184 107 loadbang;
#X obj 133 72 metro 250;
#X obj 133 38 tgl 15 0 empty empty empty 17 7 0 10 -262144 -1 -1 1
1;
#X floatatom 133 220 5 0 0 0 - - -, f 5;
#X connect 0 0 5 0;
#X connect 1 0 0 1;
#X connect 2 0 1 0;
#X connect 3 0 0 0;
#X connect 4 0 3 0;
