#N canvas 0 22 450 300 10;
#X msg 111 215 60 58 57 54;
#X obj 111 80 metro 250;
#X obj 111 123 f;
#X obj 147 121 + 1;
#X obj 190 119 mod 4;
#X obj 111 246 list-index;
#X obj 111 39 loadbang;
#X floatatom 111 279 5 0 0 0 - - -, f 5;
#X obj 111 179 t b a;
#X connect 0 0 5 0;
#X connect 1 0 2 0;
#X connect 2 0 3 0;
#X connect 2 0 8 0;
#X connect 3 0 4 0;
#X connect 4 0 2 1;
#X connect 5 0 7 0;
#X connect 6 0 1 0;
#X connect 8 0 0 0;
#X connect 8 1 5 1;
