#N canvas 0 22 554 313 10;
#X obj 66 125 f;
#X obj 94 125 + 1;
#X obj 126 152 t b a;
#X obj 126 214 list-nth;
#X obj 222 52 inlet;
#X obj 66 19 inlet;
#X obj 66 46 t b;
#X obj 222 81 list length;
#X obj 126 125 mod;
#X obj 126 185 list;
#X obj 126 251 outlet;
#X text 267 30 send list to loop over here \, then bang left inlet
to get next element of the loop;
#X connect 0 0 1 0;
#X connect 1 0 8 0;
#X connect 2 0 9 0;
#X connect 2 1 3 1;
#X connect 3 0 10 0;
#X connect 4 0 7 0;
#X connect 4 0 9 1;
#X connect 5 0 6 0;
#X connect 6 0 0 0;
#X connect 7 0 8 1;
#X connect 8 0 0 1;
#X connect 8 0 2 0;
#X connect 9 0 3 0;
