#N canvas 392 65 941 486 10;
#X obj 49 23 catch~ dac1;
#X obj 69 43 catch~ dac2;
#X obj 89 63 catch~ dac3;
#X obj 109 83 catch~ dac4;
#X obj 129 103 catch~ dac5;
#X obj 149 123 catch~ dac6;
#X obj 169 143 catch~ dac7;
#X obj 189 163 catch~ dac8;
#X obj 208 183 catch~ dac9;
#X obj 227 203 catch~ dac10;
#X obj 247 223 catch~ dac11;
#X obj 267 243 catch~ dac12;
#X obj 287 263 catch~ dac13;
#X obj 307 283 catch~ dac14;
#X obj 327 303 catch~ dac15;
#X obj 347 323 catch~ dac16;
#X obj 49 413 dac~ 1 2 3 4 5 6 7 8 9 10 11 12 13 14 15 16 17 18 19
20 21 22 23 24 25 26 27 28 29 30 31 32, f 104;
#X obj 440 23 catch~ dac17;
#X obj 459 43 catch~ dac18;
#X obj 479 63 catch~ dac19;
#X obj 499 83 catch~ dac20;
#X obj 519 103 catch~ dac21;
#X obj 539 123 catch~ dac22;
#X obj 559 143 catch~ dac23;
#X obj 579 163 catch~ dac24;
#X obj 598 183 catch~ dac25;
#X obj 617 203 catch~ dac26;
#X obj 637 223 catch~ dac27;
#X obj 657 243 catch~ dac28;
#X obj 677 263 catch~ dac29;
#X obj 697 283 catch~ dac30;
#X obj 717 303 catch~ dac31;
#X obj 737 323 catch~ dac32;
#X connect 0 0 16 0;
#X connect 1 0 16 1;
#X connect 2 0 16 2;
#X connect 3 0 16 3;
#X connect 4 0 16 4;
#X connect 5 0 16 5;
#X connect 6 0 16 6;
#X connect 7 0 16 7;
#X connect 8 0 16 8;
#X connect 9 0 16 9;
#X connect 10 0 16 10;
#X connect 11 0 16 11;
#X connect 12 0 16 12;
#X connect 13 0 16 13;
#X connect 14 0 16 14;
#X connect 15 0 16 15;
#X connect 17 0 16 16;
#X connect 18 0 16 17;
#X connect 19 0 16 18;
#X connect 20 0 16 19;
#X connect 21 0 16 20;
#X connect 22 0 16 21;
#X connect 23 0 16 22;
#X connect 24 0 16 23;
#X connect 25 0 16 24;
#X connect 26 0 16 25;
#X connect 27 0 16 26;
#X connect 28 0 16 27;
#X connect 29 0 16 28;
#X connect 30 0 16 29;
#X connect 31 0 16 30;
#X connect 32 0 16 31;
