#N canvas 385 63 1169 745 10;
#X msg 758 120 0 2 3 5 7 9 10 12;
#X obj 209 364 list-nth;
#X obj 139 64 random 10;
#X obj 139 92 + 6;
#X obj 209 273 list;
#X obj 230 247 r \$0scale;
#X obj 758 98 loadbang;
#X obj 758 183 s \$0scale;
#X obj 139 119 until;
#X obj 269 295 r \$0scale-len;
#X obj 830 178 list length;
#X obj 830 203 s \$0scale-len;
#X obj 236 328 random;
#X obj 209 297 t a b;
#X obj 236 462 random 5;
#X obj 236 484 + 3;
#X obj 236 506 * 12;
#X obj 209 542 +;
#X obj 209 428 t a b;
#X obj 139 149 random 100;
#X obj 139 197 sel 0 1;
#X text 286 493 add octave;
#X msg 139 543 0;
#X obj 139 616 list-extend;
#X obj 212 34 s \$0reset;
#X obj 202 596 r \$0reset;
#X obj 120 655 list;
#X obj 120 33 t b b b;
#X obj 139 170 < 80;
#X text 176 172 percentage of notes to rests;
#X obj 120 691 outlet;
#X obj 120 6 inlet;
#X text 297 328 get a random element from the scale;
#X text 232 618 accumulate the melody;
#X connect 0 0 7 0;
#X connect 0 0 10 0;
#X connect 1 0 18 0;
#X connect 2 0 3 0;
#X connect 3 0 8 0;
#X connect 4 0 13 0;
#X connect 5 0 4 1;
#X connect 6 0 0 0;
#X connect 8 0 19 0;
#X connect 9 0 12 1;
#X connect 10 0 11 0;
#X connect 12 0 1 1;
#X connect 13 0 1 0;
#X connect 13 1 12 0;
#X connect 14 0 15 0;
#X connect 15 0 16 0;
#X connect 16 0 17 1;
#X connect 17 0 23 0;
#X connect 18 0 17 0;
#X connect 18 1 14 0;
#X connect 19 0 28 0;
#X connect 20 0 22 0;
#X connect 20 1 4 0;
#X connect 22 0 23 0;
#X connect 23 0 26 1;
#X connect 25 0 23 1;
#X connect 26 0 30 0;
#X connect 27 0 26 0;
#X connect 27 1 2 0;
#X connect 27 2 24 0;
#X connect 28 0 20 0;
#X connect 31 0 27 0;
