#N canvas 591 265 780 461 10;
#N canvas 0 22 450 278 (subpatch) 0;
#X array \$0left 5.292e+06 float 2;
#X coords 0 1 5.292e+06 -1 50 40 1 0 0;
#X restore 105 238 graph;
#N canvas 0 22 450 278 (subpatch) 0;
#X array \$0right 5.292e+06 float 2;
#X coords 0 1 5.292e+06 -1 50 40 1 0 0;
#X restore 165 238 graph;
#X obj 31 13 inlet~;
#X obj 252 13 inlet~;
#X obj 477 183 soundfiler;
#X obj 31 75 tabwrite~ \$0left;
#X obj 252 75 tabwrite~ \$0right;
#X msg 477 161 write -aiff \$2 \$1left \$1right;
#X obj 477 141 prepent \$0;
#X obj 477 58 savepanel;
#X obj 320 41 t b;
#X obj 496 228 loadbang;
#X obj 496 249 \$1;
#X obj 496 271 * 44100;
#X msg 496 348 \; \$1 resize \$2;
#X obj 507 323 list prepend \$0right;
#X obj 496 300 list prepend \$0left;
#X obj 105 281 bng 15 250 50 0 \$0record \$0record-r record 17 7 0
10 -261234 -1 -1;
#X obj 165 281 bng 15 250 50 0 \$0save \$0save-r save 17 7 0 10 -204786
-1 -1;
#X obj 477 33 r \$0save;
#X obj 320 17 r \$0record;
#X connect 2 0 5 0;
#X connect 3 0 6 0;
#X connect 7 0 4 0;
#X connect 8 0 7 0;
#X connect 9 0 8 0;
#X connect 10 0 6 0;
#X connect 10 0 5 0;
#X connect 11 0 12 0;
#X connect 12 0 13 0;
#X connect 13 0 15 0;
#X connect 13 0 16 0;
#X connect 15 0 14 0;
#X connect 16 0 14 0;
#X connect 19 0 9 0;
#X connect 20 0 10 0;
#X coords 0 -1 1 1 120 100 1 100 200;
