#N canvas 555 207 450 300 10;
#X obj 62 262 sdac~;
#X obj 89 231 r \$0dac;
#X obj 137 39 r \$0trigger;
#X obj 62 59 r \$0note;
#X obj 62 120 blsaw~;
#X obj 62 86 mtof;
#X obj 62 200 *~;
#X msg 172 233 1;
#X msg 292 190 60;
#X obj 292 227 s \$0note;
#X obj 137 60 t b f;
#X obj 137 127 *~;
#X obj 353 186 s \$0trigger;
#X msg 353 154 1;
#X obj 137 87 ar4~ 1 1000;
#X connect 1 0 0 1;
#X connect 2 0 10 0;
#X connect 3 0 5 0;
#X connect 4 0 6 0;
#X connect 5 0 4 0;
#X connect 6 0 0 0;
#X connect 7 0 0 1;
#X connect 8 0 9 0;
#X connect 10 0 14 0;
#X connect 10 1 11 1;
#X connect 11 0 6 1;
#X connect 13 0 12 0;
#X connect 14 0 11 0;
