#N canvas 102 258 517 401 10;
#X obj 50 206 osc~ 440;
#X obj 49 47 metro 250;
#X obj 49 173 vline~;
#X obj 49 70 random 24;
#X obj 48 19 tgl 15 0 empty empty empty 17 7 0 10 -262144 -1 -1 1 1
;
#X obj 49 120 mtof;
#X obj 49 148 pack 0 100;
#X obj 123 282 *~ 0.1;
#X obj 4 151 osc~ 7;
#X obj 5 178 *~ 25;
#X obj 117 207 osc~ 440;
#X obj 146 151 *~ 25;
#X obj 145 124 osc~ 6;
#X obj 117 179 *~ 1.5;
#X obj 206 203 osc~ 440;
#X obj 206 175 *~ 2;
#X obj 235 147 *~ 50;
#X obj 234 120 osc~ 20;
#X obj 49 92 + 60;
#X obj 123 321 sdac~;
#X obj 187 293 r \$0dac;
#X obj 96 13 loadbang;
#X connect 0 0 7 0;
#X connect 1 0 3 0;
#X connect 2 0 0 0;
#X connect 2 0 13 0;
#X connect 2 0 15 0;
#X connect 3 0 18 0;
#X connect 4 0 1 0;
#X connect 5 0 6 0;
#X connect 6 0 2 0;
#X connect 7 0 19 0;
#X connect 8 0 9 0;
#X connect 9 0 0 0;
#X connect 10 0 7 0;
#X connect 11 0 10 0;
#X connect 12 0 11 0;
#X connect 13 0 10 0;
#X connect 14 0 7 0;
#X connect 15 0 14 0;
#X connect 16 0 14 0;
#X connect 17 0 16 0;
#X connect 18 0 5 0;
#X connect 20 0 19 1;
#X connect 21 0 4 0;
