#N canvas 356 72 468 490 10;
#X obj 99 298 r \$0dac;
#X obj 72 321 sdac~;
#X obj 72 18 noise~;
#X obj 72 202 *~;
#X msg 120 324 1;
#X msg 113 182 \$1 \$2 \, 0 \$3 \$2;
#X obj 113 202 vline~;
#X obj 113 160 pack f f f;
#X obj 113 120 random 100;
#X obj 113 95 t b b b;
#X obj 113 140 / 100;
#X obj 94 65 tgl 15 0 empty empty empty 17 7 0 10 -262144 -1 -1 1 1
;
#X obj 113 66 metro 50;
#X obj 113 225 *~;
#X obj 180 120 random 25;
#X obj 241 120 random 25;
#X obj 231 81 / 2;
#X obj 113 44 loadbang;
#X obj 231 22 loadbang;
#X obj 180 220 osc~ 1;
#X obj 180 243 *~ 1000;
#X obj 180 264 +~ 5000;
#X obj 72 260 vcf~ 25;
#X obj 231 62 random 200;
#X obj 231 42 metro 10;
#X connect 0 0 1 1;
#X connect 2 0 3 0;
#X connect 3 0 22 0;
#X connect 4 0 1 1;
#X connect 5 0 6 0;
#X connect 6 0 13 0;
#X connect 6 0 13 1;
#X connect 7 0 5 0;
#X connect 8 0 10 0;
#X connect 9 0 8 0;
#X connect 9 1 14 0;
#X connect 9 2 15 0;
#X connect 10 0 7 0;
#X connect 11 0 12 0;
#X connect 12 0 9 0;
#X connect 13 0 3 1;
#X connect 14 0 7 1;
#X connect 15 0 7 2;
#X connect 16 0 15 1;
#X connect 16 0 14 1;
#X connect 17 0 12 0;
#X connect 18 0 24 0;
#X connect 19 0 20 0;
#X connect 20 0 21 0;
#X connect 21 0 22 1;
#X connect 22 0 1 0;
#X connect 23 0 16 0;
#X connect 23 0 12 1;
#X connect 24 0 23 0;
