#N canvas 11 181 851 614 10;
#X obj 92 109 *~;
#X obj 92 260 *~;
#X obj 107 238 r \$1vco1-amp;
#X obj 405 363 bob~;
#X obj 155 111 sel 0 1 2 3;
#X obj 155 212 t a;
#X obj 92 379 *~;
#X obj 92 520 *~;
#X obj 155 371 sel 0 1 2 3;
#X obj 155 472 t a;
#X obj 107 498 r \$1vco2-amp;
#X obj 345 226 r \$1cutoff;
#X obj 278 467 noise~;
#X obj 278 520 *~;
#X obj 293 499 r \$1noise-amp;
#X obj 345 247 sig~;
#X obj 445 338 *~ 8;
#X obj 445 317 r \$1res;
#X obj 512 430 *~;
#X obj 596 132 r \$1amp-attack;
#X obj 607 152 r \$1amp-decay;
#X obj 618 172 r \$1amp-sustain;
#X obj 630 192 r \$1amp-release;
#X obj 155 92 r \$1octave1;
#X obj 155 352 r \$1octave2;
#X obj 430 247 *~;
#X obj 462 247 r \$1eg-int;
#X obj 415 311 +~;
#X obj 512 463 *~ 0.5;
#X obj 441 122 r \$1env-attack;
#X obj 452 142 r \$1env-decay;
#X obj 463 162 r \$1env-sustain;
#X obj 475 182 r \$1env-release;
#X obj 430 96 r \$0trigger;
#X obj 585 106 r \$0trigger;
#X obj 92 64 r~ \$0root-freq;
#X obj 92 324 r~ \$0root-freq;
#X obj 674 410 r \$1note-on;
#X obj 674 441 route \$2;
#X obj 674 478 unpack f f;
#X obj 731 507 s \$0trigger;
#X obj 674 510 mtof;
#X obj 674 543 s~ \$0root-freq;
#X obj 585 218 adsr~;
#X obj 430 208 adsr~;
#X msg 155 453 0.5;
#X msg 170 433 1;
#X msg 186 413 2;
#X msg 202 393 4;
#X msg 155 193 0.5;
#X msg 170 173 1;
#X msg 186 153 2;
#X msg 202 133 4;
#X obj 512 489 throw~ \$1voice-out;
#X obj 44 216 vco3~;
#X obj 57 162 r \$1shape1;
#X obj 71 182 r \$1wave1;
#X obj 53 476 vco3~;
#X obj 66 422 r \$1shape2;
#X obj 80 442 r \$1wave2;
#X connect 0 0 54 0;
#X connect 1 0 3 0;
#X connect 2 0 1 1;
#X connect 3 0 18 0;
#X connect 4 0 49 0;
#X connect 4 1 50 0;
#X connect 4 2 51 0;
#X connect 4 3 52 0;
#X connect 5 0 0 1;
#X connect 6 0 57 0;
#X connect 7 0 3 0;
#X connect 8 0 45 0;
#X connect 8 1 46 0;
#X connect 8 2 47 0;
#X connect 8 3 48 0;
#X connect 9 0 6 1;
#X connect 10 0 7 1;
#X connect 11 0 15 0;
#X connect 12 0 13 0;
#X connect 13 0 3 0;
#X connect 14 0 13 1;
#X connect 15 0 27 0;
#X connect 16 0 3 2;
#X connect 17 0 16 0;
#X connect 18 0 28 0;
#X connect 19 0 43 1;
#X connect 20 0 43 2;
#X connect 21 0 43 3;
#X connect 22 0 43 4;
#X connect 23 0 4 0;
#X connect 24 0 8 0;
#X connect 25 0 27 1;
#X connect 26 0 25 1;
#X connect 27 0 3 1;
#X connect 28 0 53 0;
#X connect 29 0 44 1;
#X connect 30 0 44 2;
#X connect 31 0 44 3;
#X connect 32 0 44 4;
#X connect 33 0 44 0;
#X connect 34 0 43 0;
#X connect 35 0 0 0;
#X connect 36 0 6 0;
#X connect 37 0 38 0;
#X connect 38 0 39 0;
#X connect 39 0 41 0;
#X connect 39 1 40 0;
#X connect 41 0 42 0;
#X connect 43 0 18 1;
#X connect 44 0 25 0;
#X connect 45 0 9 0;
#X connect 46 0 9 0;
#X connect 47 0 9 0;
#X connect 48 0 9 0;
#X connect 49 0 5 0;
#X connect 50 0 5 0;
#X connect 51 0 5 0;
#X connect 52 0 5 0;
#X connect 54 0 1 0;
#X connect 55 0 54 1;
#X connect 56 0 54 2;
#X connect 57 0 7 0;
#X connect 58 0 57 1;
#X connect 59 0 57 2;
