#N canvas 0 50 615 488 10;
#X obj 216 344 vline~;
#X obj 216 380 *~;
#X obj 216 421 outlet~;
#X obj 173 122 pack f f f;
#X obj 173 61 inlet attack;
#X obj 57 61 inlet trigger;
#X obj 96 210 list;
#X obj 377 83 t b a;
#X obj 377 62 inlet sustain;
#X obj 283 61 inlet decay;
#X obj 283 83 t b a;
#X obj 487 62 inlet release;
#X obj 57 101 sel 1 0;
#X msg 372 236 0 \$1;
#X msg 96 259 1 \$1 \, \$3 \$2 \$1;
#X obj 185 192 loadbang;
#X obj 372 204 f 0.5;
#X msg 185 215 0.1 0.3 0.3;
#X connect 0 0 1 0;
#X connect 0 0 1 1;
#X connect 1 0 2 0;
#X connect 3 0 6 1;
#X connect 4 0 3 0;
#X connect 5 0 12 0;
#X connect 6 0 14 0;
#X connect 7 0 3 0;
#X connect 7 1 3 2;
#X connect 8 0 7 0;
#X connect 9 0 10 0;
#X connect 10 0 3 0;
#X connect 10 1 3 1;
#X connect 11 0 16 1;
#X connect 12 0 6 0;
#X connect 12 1 16 0;
#X connect 13 0 0 0;
#X connect 14 0 0 0;
#X connect 15 0 17 0;
#X connect 16 0 13 0;
#X connect 17 0 3 0;
