#N canvas 901 76 476 794 10;
#X msg 38 189 0;
#X obj 38 162 sel a w s e d f t g y h u j k o l p, f 39;
#X msg 52 209 1;
#X msg 66 229 2;
#X msg 81 249 3;
#X msg 95 269 4;
#X msg 110 289 5;
#X msg 124 309 6;
#X msg 139 329 7;
#X msg 153 349 8;
#X msg 167 369 9;
#X msg 182 389 10;
#X msg 196 409 11;
#X msg 211 429 12;
#X msg 225 449 13;
#X msg 240 469 14;
#X msg 254 489 15;
#X obj 38 534 f;
#X obj 38 686 outlet;
#X obj 38 132 spigot;
#X obj 38 83 keynamedown;
#X obj 298 559 keynamedown;
#X obj 298 588 sel z x;
#X obj 337 669 +;
#X obj 298 615 t b b;
#X obj 338 615 t b b;
#X msg 365 637 1;
#X obj 337 758 * 12;
#X obj 337 690 max 0;
#X obj 337 712 min 5;
#X msg 325 638 -1;
#X obj 235 616 loadbang;
#X msg 235 641 3;
#X obj 298 676 f;
#X text 296 537 octave changing;
#X obj 337 735 + 3;
#X obj 38 641 +;
#X obj 102 116 hradio 10 1 0 6 \$0octave-s \$0octave-r empty 0 -8 0
10 -262144 -1 -1 3;
#X obj 102 129 nbx 5 14 -1e+037 1e+037 0 0 \$0note-s \$0note-r empty
0 -8 0 10 -262144 -1 -1 0 256;
#X msg 379 737 set \$1;
#X obj 379 757 s \$0octave-r;
#X obj 167 579 r \$0octave-s;
#X obj 94 700 s \$0note-r;
#X msg 94 679 set \$1;
#X obj 92 635 r \$0note-s;
#X obj 168 143 tgl 15 0 empty empty empty 17 7 0 10 -262144 -1 -1 1
1;
#X obj 198 91 loadbang;
#X msg 198 112 1;
#X connect 0 0 17 0;
#X connect 1 0 0 0;
#X connect 1 1 2 0;
#X connect 1 2 3 0;
#X connect 1 3 4 0;
#X connect 1 4 5 0;
#X connect 1 5 6 0;
#X connect 1 6 7 0;
#X connect 1 7 8 0;
#X connect 1 8 9 0;
#X connect 1 9 10 0;
#X connect 1 10 11 0;
#X connect 1 11 12 0;
#X connect 1 12 13 0;
#X connect 1 13 14 0;
#X connect 1 14 15 0;
#X connect 1 15 16 0;
#X connect 2 0 17 0;
#X connect 3 0 17 0;
#X connect 4 0 17 0;
#X connect 5 0 17 0;
#X connect 6 0 17 0;
#X connect 7 0 17 0;
#X connect 8 0 17 0;
#X connect 9 0 17 0;
#X connect 10 0 17 0;
#X connect 11 0 17 0;
#X connect 12 0 17 0;
#X connect 13 0 17 0;
#X connect 14 0 17 0;
#X connect 15 0 17 0;
#X connect 16 0 17 0;
#X connect 17 0 36 0;
#X connect 19 0 1 0;
#X connect 20 0 19 0;
#X connect 21 0 22 0;
#X connect 22 0 24 0;
#X connect 22 1 25 0;
#X connect 23 0 28 0;
#X connect 24 0 33 0;
#X connect 24 1 30 0;
#X connect 25 0 33 0;
#X connect 25 1 26 0;
#X connect 26 0 23 1;
#X connect 27 0 36 1;
#X connect 28 0 29 0;
#X connect 29 0 33 1;
#X connect 29 0 35 0;
#X connect 29 0 39 0;
#X connect 30 0 23 1;
#X connect 31 0 32 0;
#X connect 32 0 33 0;
#X connect 33 0 23 0;
#X connect 35 0 27 0;
#X connect 36 0 18 0;
#X connect 36 0 43 0;
#X connect 39 0 40 0;
#X connect 41 0 33 0;
#X connect 43 0 42 0;
#X connect 44 0 18 0;
#X connect 45 0 19 1;
#X connect 46 0 47 0;
#X connect 47 0 45 0;
#X coords 0 -1 1 1 85 60 1 100 100;
