#N canvas 456 294 460 460 10;
#X obj 133 103 list length;
#X obj 133 293 list-swap;
#X obj 163 261 random;
#X obj 223 261 random;
#X obj 133 222 t a b;
#X obj 133 188 list;
#X obj 101 329 list;
#X obj 133 128 t a a;
#X obj 133 82 t a a;
#X obj 133 158 until;
#X obj 101 50 t b a;
#X obj 101 22 inlet;
#X obj 101 357 outlet;
#X connect 0 0 7 0;
#X connect 1 0 5 1;
#X connect 1 0 6 1;
#X connect 2 0 1 1;
#X connect 3 0 1 2;
#X connect 4 0 1 0;
#X connect 4 1 2 0;
#X connect 4 1 3 0;
#X connect 5 0 4 0;
#X connect 6 0 12 0;
#X connect 7 0 9 0;
#X connect 7 1 2 1;
#X connect 7 1 3 1;
#X connect 8 0 0 0;
#X connect 8 1 5 1;
#X connect 9 0 5 0;
#X connect 10 0 6 0;
#X connect 10 1 8 0;
#X connect 11 0 10 0;
