#N canvas 684 268 657 446 10;
#X obj 261 305 list append;
#X obj 341 271 t a;
#X obj 259 243 until;
#X obj 259 217 \$1;
#X obj 444 174 inlet;
#X obj 224 117 inlet;
#X obj 259 187 t b a b;
#X obj 260 275 list;
#X obj 224 380 outlet;
#X text 364 173 repeat count;
#X text 333 230 reset accum;
#X obj 224 338 list;
#X obj 224 150 t b a;
#X connect 0 0 1 0;
#X connect 0 0 11 1;
#X connect 1 0 0 1;
#X connect 2 0 7 0;
#X connect 3 0 2 0;
#X connect 4 0 3 1;
#X connect 5 0 12 0;
#X connect 6 0 3 0;
#X connect 6 1 7 1;
#X connect 6 2 1 0;
#X connect 7 0 0 0;
#X connect 11 0 8 0;
#X connect 12 0 11 0;
#X connect 12 1 6 0;
