#N canvas 706 533 431 337 10;
#X obj 97 154 timer;
#X obj 63 209 sel 1;
#X obj 63 103 t b a, f 7;
#X obj 63 239 list, f 7;
#X obj 160 74 inlet;
#X obj 63 72 inlet;
#X obj 63 272 outlet;
#X obj 160 192 t b;
#X obj 63 182 > \$1;
#X text 9 5 Limits the rate of incoming messages;
#X text 204 69 outputs the last message received;
#X connect 0 0 8 0;
#X connect 1 0 3 0;
#X connect 1 0 0 0;
#X connect 2 0 0 1;
#X connect 2 1 3 1;
#X connect 3 0 6 0;
#X connect 4 0 7 0;
#X connect 5 0 2 0;
#X connect 7 0 3 0;
#X connect 8 0 1 0;
