#N canvas 771 377 470 497 10;
#X obj 56 38 inlet~;
#X obj 71 113 loadbang;
#X obj 71 206 -~;
#X obj 98 167 \$1;
#X obj 71 167 \$2;
#X obj 56 232 /~;
#X obj 71 138 t b b;
#X obj 56 78 -~ \$1;
#X obj 71 281 loadbang;
#X obj 71 306 t b b;
#X obj 71 364 -~;
#X obj 71 335 \$3;
#X obj 98 335 \$4;
#X obj 56 393 *~;
#X obj 56 424 +~ \$3;
#X obj 56 455 outlet~;
#X connect 0 0 7 0;
#X connect 1 0 6 0;
#X connect 2 0 5 1;
#X connect 3 0 2 1;
#X connect 4 0 2 0;
#X connect 5 0 13 0;
#X connect 6 0 4 0;
#X connect 6 1 3 0;
#X connect 7 0 5 0;
#X connect 8 0 9 0;
#X connect 9 0 11 0;
#X connect 9 1 12 0;
#X connect 10 0 13 1;
#X connect 11 0 10 0;
#X connect 12 0 10 1;
#X connect 13 0 14 0;
#X connect 14 0 15 0;
