#N canvas 549 50 506 263 10;
#N canvas 0 50 450 278 (subpatch) 0;
#X array \$0scope 44100 float 0;
#X coords 0 1 44100 -1 100 100 2 0 0;
#X restore 110 118 graph;
#X obj 250 200 tabwrite~ \$0scope;
#X obj 259 155 metro 1000;
#X obj 250 69 inlet~;
#X obj 259 109 loadbang;
#N canvas 0 50 450 300 graph-refresh-workaround 0;
#X obj 145 191 tabwrite \$0scope;
#X obj 125 124 bng 15 250 50 0 empty empty empty 17 7 0 10 -262144
-1 -1;
#X msg 145 144 0;
#X obj 145 165 t a a;
#X obj 145 103 loadbang;
#X obj 145 124 metro 33;
#X text 42 61 workaround to force graph to update regularly;
#X connect 1 0 5 0;
#X connect 2 0 3 0;
#X connect 3 0 0 0;
#X connect 3 1 0 1;
#X connect 4 0 5 0;
#X connect 5 0 2 0;
#X restore 18 25 pd graph-refresh-workaround;
#X connect 2 0 1 0;
#X connect 3 0 1 0;
#X connect 4 0 2 0;
#X coords 0 -1 1 1 120 120 2 100 100;
