#N canvas 381 166 565 340 10;
#X obj 99 44 inlet~;
#X obj 99 73 s~ \$0dac;
#X obj 313 142 makefilename pd-%s;
#N canvas 955 480 450 300 \$0dac 0;
#X restore 102 152 pd \$0dac;
#X obj 313 118 symbol \$0dac;
#X obj 313 176 pack s \$0 f;
#X obj 313 82 t b a;
#X msg 402 79 2;
#X msg 372 79 1;
#X msg 432 79 3;
#X msg 313 209 \; \$1 clear \; \$1 obj 50 60 r~ \$2dac \; \$1 obj 50
100 dac~ \$3 \; \$1 connect 0 0 1 0;
#X obj 313 59 r \$1dac;
#X connect 0 0 1 0;
#X connect 2 0 5 0;
#X connect 4 0 2 0;
#X connect 5 0 10 0;
#X connect 6 0 4 0;
#X connect 6 1 5 2;
#X connect 7 0 6 0;
#X connect 8 0 6 0;
#X connect 9 0 6 0;
#X connect 11 0 6 0;
