#N canvas 650 257 451 470 10;
#X obj 49 266 -~ 0.5;
#X obj 129 210 *~ 0.5;
#X obj 129 266 -~ 0.5;
#X obj 87 319 *~ 0.2;
#X obj 186 210 osc~ 3;
#X obj 129 240 phasor~;
#X obj 49 240 phasor~;
#X obj 319 239 -~ 0.5;
#X obj 319 215 phasor~;
#X obj 319 190 +~;
#X obj 319 168 *~ 2;
#X obj 319 265 *~ -0.5;
#X obj 129 68 inlet~;
#X obj 87 350 outlet~;
#X connect 0 0 3 0;
#X connect 1 0 5 0;
#X connect 2 0 3 0;
#X connect 3 0 13 0;
#X connect 4 0 5 0;
#X connect 5 0 2 0;
#X connect 6 0 0 0;
#X connect 7 0 11 0;
#X connect 8 0 7 0;
#X connect 9 0 8 0;
#X connect 10 0 9 0;
#X connect 11 0 3 0;
#X connect 12 0 1 0;
#X connect 12 0 6 0;
#X connect 12 0 10 0;
