#N canvas 478 368 450 300 10;
#X obj 63 144 blsaw~;
#X obj 173 144 blsquare~;
#X obj 78 228 outlet~;
#X obj 145 69 inlet~ shape;
#X obj 282 139 inlet choose;
#X obj 43 69 inlet~ freq;
#N canvas 0 50 450 300 switch3 0;
#X obj 91 71 inlet~;
#X obj 108 109 == 0;
#X obj 311 30 inlet;
#X obj 90 130 *~;
#X obj 91 193 outlet~;
#X obj 151 71 inlet~;
#X obj 150 130 *~;
#X obj 211 71 inlet~;
#X obj 210 130 *~;
#X obj 168 109 == 1;
#X obj 228 109 == 2;
#X connect 0 0 3 0;
#X connect 1 0 3 1;
#X connect 2 0 1 0;
#X connect 2 0 9 0;
#X connect 2 0 10 0;
#X connect 3 0 4 0;
#X connect 5 0 6 0;
#X connect 6 0 4 0;
#X connect 7 0 8 0;
#X connect 8 0 4 0;
#X connect 9 0 6 1;
#X connect 10 0 8 1;
#X restore 79 203 pd switch3;
#X obj 131 144 osc~;
#X obj 203 190 loadbang;
#X msg 203 207 0;
#X connect 0 0 6 0;
#X connect 1 0 6 2;
#X connect 3 0 1 1;
#X connect 4 0 6 3;
#X connect 5 0 1 0;
#X connect 5 0 0 0;
#X connect 5 0 7 0;
#X connect 6 0 2 0;
#X connect 7 0 6 1;
#X connect 8 0 9 0;
#X connect 9 0 6 3;
