#N canvas 0 50 450 300 10;
#X obj 88 84 vline~;
#X obj 88 109 *~;
#X obj 88 133 *~;
#X obj 88 161 outlet~;
#X obj 88 31 inlet;
#X obj 138 31 inlet;
#X obj 188 31 inlet;
#X connect 0 0 1 1;
#X connect 0 0 1 0;
#X connect 1 0 2 1;
#X connect 1 0 2 0;
#X connect 2 0 3 0;
#X connect 4 0 0 0;
#X connect 5 0 0 1;
#X connect 6 0 0 2;
