#N canvas 628 60 409 617 10;
#X obj 54 433 osc~;
#X obj 41 583 dac~;
#X obj 54 546 *~ 0.1;
#X obj 55 317 *~ 100;
#X obj 96 92 delay;
#X obj 118 63 t b b;
#X obj 55 411 +~ 150;
#X obj 55 517 *~;
#X obj 337 330 / 2;
#X obj 154 134 + 50;
#X obj 151 444 noise~;
#X obj 319 361 ar2~;
#X obj 151 489 vcf~ 2;
#X obj 155 92 random 50;
#X obj 140 299 random 300;
#X obj 140 269 random 500;
#X obj 19 22 loadbang;
#X obj 55 354 *~ -1;
#X obj 169 420 +~ 300;
#X connect 0 0 7 0;
#X connect 2 0 1 0;
#X connect 2 0 1 1;
#X connect 3 0 17 0;
#X connect 4 0 5 0;
#X connect 4 0 11 0;
#X connect 4 0 14 0;
#X connect 4 0 15 0;
#X connect 5 0 4 0;
#X connect 5 1 13 0;
#X connect 6 0 0 0;
#X connect 7 0 2 0;
#X connect 8 0 11 2;
#X connect 8 0 11 1;
#X connect 9 0 4 1;
#X connect 9 0 8 0;
#X connect 10 0 12 0;
#X connect 11 0 3 0;
#X connect 11 0 7 1;
#X connect 12 0 2 0;
#X connect 13 0 9 0;
#X connect 14 0 6 1;
#X connect 15 0 3 1;
#X connect 16 0 4 0;
#X connect 17 0 6 0;
#X connect 17 0 18 0;
#X connect 18 0 12 1;
