#N canvas 531 202 896 565 10;
#N canvas 0 50 450 278 (subpatch) 0;
#X array \$0array 44100 float 2;
#X coords 0 1 44100 -1 200 140 1;
#X restore 27 48 graph;
#X obj 287 131 adc~;
#X obj 138 301 tabplay~ \$0array;
#X obj 287 226 tabwrite~ \$0array;
#X obj 138 268 metro 1000;
#X obj 138 235 loadbang;
#X obj 114 269 tgl 15 0 empty empty empty 17 7 0 10 -262144 -1 -1 0
1;
#X obj 230 344 fft-array~ \$0sample-fft;
#X obj 138 370 sdac~ \$0;
#X obj 138 346 *~ 0.1;
#X obj 351 159 r \$0begin-recording;
#X obj 546 410 soundfiler;
#X obj 580 200 r \$0sample-file;
#X msg 427 336 write -wave \$1 \$2;
#X obj 427 312 list append \$0array;
#X obj 580 312 list append \$0array;
#X obj 427 200 delay 1000;
#X obj 427 276 list append;
#X obj 351 99 bng 15 250 50 0 empty empty empty 17 7 0 10 -262144 -1
-1;
#X obj 351 119 s \$0begin-recording;
#X msg 580 336 read \$1 \$2;
#X connect 1 0 3 0;
#X connect 2 0 7 0;
#X connect 2 0 9 0;
#X connect 4 0 2 0;
#X connect 5 0 4 0;
#X connect 6 0 4 0;
#X connect 9 0 8 0;
#X connect 10 0 3 0;
#X connect 10 0 16 0;
#X connect 12 0 15 0;
#X connect 12 0 17 1;
#X connect 13 0 11 0;
#X connect 14 0 13 0;
#X connect 15 0 20 0;
#X connect 16 0 17 0;
#X connect 17 0 14 0;
#X connect 18 0 19 0;
#X connect 20 0 11 0;
