#N canvas 531 202 896 565 10;
#N canvas 0 50 450 278 (subpatch) 0;
#X array \$0array 44100 float 2;
#X coords 0 1 44100 -1 200 140 1;
#X restore 27 48 graph;
#X obj 427 41 adc~;
#X obj 427 136 tabwrite~ \$0array;
#X obj 360 504 fft-array~ \$0sample-fft;
#X obj 268 530 sdac~ \$0;
#X obj 268 506 *~ 0.1;
#X obj 491 69 r \$0begin-recording;
#X obj 686 320 soundfiler;
#X obj 720 110 r \$0sample-file;
#X msg 567 246 write -wave \$1 \$2;
#X obj 567 222 list append \$0array;
#X obj 720 222 list append \$0array;
#X obj 567 110 delay 1000;
#X obj 567 186 list append;
#X obj 491 9 bng 15 250 50 0 empty empty empty 17 7 0 10 -262144 -1
-1;
#X obj 491 29 s \$0begin-recording;
#X msg 720 246 read \$1 \$2;
#X msg 647 8 1;
#X obj 647 33 s \$0dac;
#X obj 267 461 tabread4~ \$0array;
#X obj 268 419 *~ 44100;
#X obj 267 354 phasor~ 1;
#X obj 25 251 hsl 128 15 -1 1 0 0 empty empty empty -2 -8 0 10 -262144
-1 -1 4500 1;
#X obj 267 209 r \$0sample-speed;
#X obj 22 325 pow 3;
#X obj 22 416 * 50;
#X obj 78 295 > 0;
#X obj 22 300 abs;
#X obj 22 273 t a a;
#X msg 78 349 -1;
#X msg 114 349 1;
#X obj 78 318 sel 0 1;
#X obj 22 390 *;
#X connect 1 0 2 0;
#X connect 5 0 4 0;
#X connect 6 0 2 0;
#X connect 6 0 12 0;
#X connect 8 0 11 0;
#X connect 8 0 13 1;
#X connect 9 0 7 0;
#X connect 10 0 9 0;
#X connect 11 0 16 0;
#X connect 12 0 13 0;
#X connect 13 0 10 0;
#X connect 14 0 15 0;
#X connect 16 0 7 0;
#X connect 17 0 18 0;
#X connect 19 0 5 0;
#X connect 19 0 3 0;
#X connect 20 0 19 0;
#X connect 21 0 20 0;
#X connect 22 0 28 0;
#X connect 23 0 21 0;
#X connect 24 0 32 0;
#X connect 25 0 21 0;
#X connect 26 0 31 0;
#X connect 27 0 24 0;
#X connect 28 0 27 0;
#X connect 28 1 26 0;
#X connect 29 0 32 1;
#X connect 30 0 32 1;
#X connect 31 0 29 0;
#X connect 31 1 30 0;
#X connect 32 0 25 0;
