#N canvas 22 76 1359 699 10;
#X obj 324 310 *~;
#X obj 342 288 r \$1vco1-amp;
#X obj 685 433 bob~;
#X obj 332 630 *~;
#X obj 350 608 r \$1vco2-amp;
#X obj 715 339 r \$1cutoff;
#X obj 518 577 noise~;
#X obj 518 630 *~;
#X obj 533 609 r \$1noise-amp;
#X obj 725 434 *~ 8;
#X obj 888 398 *~;
#X obj 913 122 r \$1amp-attack;
#X obj 921 142 r \$1amp-decay;
#X obj 929 162 r \$1amp-sustain;
#X obj 937 182 r \$1amp-release;
#X obj 697 257 *~;
#X obj 697 361 +~;
#X obj 888 431 *~ 0.5;
#X obj 705 122 r \$1env-attack;
#X obj 713 142 r \$1env-decay;
#X obj 721 162 r \$1env-sustain;
#X obj 729 182 r \$1env-release;
#X obj 697 96 r \$0trigger;
#X obj 905 96 r \$0trigger;
#X obj 38 30 r \$1note-on;
#X obj 38 61 route \$2;
#X obj 38 98 unpack f f;
#X obj 105 127 s \$0trigger;
#X obj 697 208 adsr~;
#X obj 888 457 throw~ \$1voice-out;
#X obj 333 586 vco3~;
#X obj 510 339 +~;
#X obj 118 569 +~;
#X obj 151 570 *~;
#X obj 39 286 +~;
#X obj 324 266 vco3~;
#N canvas 291 50 275 238 select-octave 0;
#X obj 65 111 sel 0 1 2 3;
#X obj 65 70 inlet;
#X msg 120 133 -12;
#X msg 102 153 0;
#X msg 83 173 12;
#X msg 65 193 24;
#X obj 65 212 outlet;
#X connect 0 0 5 0;
#X connect 0 1 4 0;
#X connect 0 2 3 0;
#X connect 0 3 2 0;
#X connect 1 0 0 0;
#X connect 2 0 6 0;
#X connect 3 0 6 0;
#X connect 4 0 6 0;
#X connect 5 0 6 0;
#X restore 357 130 pd select-octave;
#N canvas 0 50 260 299 select-octave 0;
#X obj 65 111 sel 0 1 2 3;
#X obj 65 70 inlet;
#X msg 120 133 -12;
#X msg 102 153 0;
#X msg 83 173 12;
#X msg 65 193 24;
#X obj 65 212 outlet;
#X connect 0 0 5 0;
#X connect 0 1 4 0;
#X connect 0 2 3 0;
#X connect 0 3 2 0;
#X connect 1 0 0 0;
#X connect 2 0 6 0;
#X connect 3 0 6 0;
#X connect 4 0 6 0;
#X connect 5 0 6 0;
#X restore 365 439 pd select-octave;
#X obj 696 305 +~;
#X obj 341 242 +~;
#X obj 341 205 *~ 0.5;
#X obj 350 564 +~;
#X obj 350 527 *~ 0.5;
#X obj 118 492 +~;
#X obj 150 492 *~;
#X obj 905 208 adsr~;
#X obj 325 88 +~;
#X obj 332 395 +~;
#X obj 325 161 mtof~;
#X obj 74 315 *~ 12;
#X obj 38 176 sig~;
#X obj 183 588 * 12;
#X obj 362 395 * 12;
#X obj 332 439 +~;
#X obj 324 129 +~;
#X obj 149 469 ftom~;
#X obj 150 442 *~ 12;
#X obj 355 88 * 12;
#X obj 332 471 mtof~;
#X obj 730 305 *~ 12;
#X obj 697 385 mtof~;
#X obj 31 395 +~;
#X obj 697 236 *~ 96;
#X obj 685 501 r \$1to-filter;
#X obj 1074 564 *~;
#N canvas 0 50 450 300 route3 0;
#X obj 147 155 == 0;
#X obj 129 175 *~;
#X obj 130 202 outlet~;
#X obj 199 175 *~;
#X obj 200 202 outlet~;
#X obj 269 175 *~;
#X obj 270 202 outlet~;
#X obj 130 71 inlet~;
#X obj 241 65 inlet;
#X obj 217 155 == 1;
#X obj 287 155 == 2;
#X connect 0 0 1 1;
#X connect 1 0 2 0;
#X connect 3 0 4 0;
#X connect 5 0 6 0;
#X connect 7 0 1 0;
#X connect 7 0 3 0;
#X connect 7 0 5 0;
#X connect 8 0 0 0;
#X connect 8 0 9 0;
#X connect 8 0 10 0;
#X connect 9 0 3 1;
#X connect 10 0 5 1;
#X restore 1073 610 pd route3;
#X msg 1089 429 0.5;
#X obj 1089 410 loadbang;
#X obj 1073 490 vco3~;
#X obj 1133 589 r \$1lfo-target;
#X obj 1105 443 r \$1lfo-wave;
#X obj 1092 356 r \$1lfo-rate;
#X obj 1229 528 r \$1lfo-int;
#X obj 1218 239 r \$1lfo-eg-mod;
#X obj 729 257 r \$1cutoff-eg-int;
#X obj 1188 494 *~;
#X obj 1217 493 == 0;
#X obj 1105 304 == 1;
#X obj 1074 304 *~;
#X obj 1189 529 +~;
#X obj 1074 385 +~;
#X obj 1073 326 *~ 50;
#X obj 1295 395 +~;
#X obj 1295 287 +~;
#X obj 355 67 r \$1vco1-pitch;
#X obj 357 110 r \$1vco1-octave;
#X obj 368 266 r \$1vco1-wave;
#X obj 377 585 r \$1vco2-wave;
#X obj 368 544 r \$1vco2-shape;
#X obj 359 222 r \$1vco1-shape;
#X obj 184 492 r \$1vco2-crossdepth;
#X obj 183 570 r \$1vco2-pitch-eg-int;
#X obj 725 413 r \$1resonance;
#X obj 365 419 r \$1vco2-octave;
#X obj 362 376 r \$1vco2-pitch;
#X obj 350 506 r~ \$0lfo-to-shape;
#X obj 74 289 r~ \$0lfo-to-pitch;
#X obj 730 285 r~ \$0lfo-to-cutoff;
#X obj 1132 634 s~ \$0lfo-to-cutoff;
#X obj 1102 654 s~ \$0lfo-to-shape;
#X obj 1073 673 s~ \$0lfo-to-pitch;
#X obj 341 184 r~ \$0lfo-to-shape;
#X connect 0 0 2 0;
#X connect 1 0 0 1;
#X connect 2 0 10 0;
#X connect 3 0 2 0;
#X connect 4 0 3 1;
#X connect 5 0 16 1;
#X connect 6 0 7 0;
#X connect 7 0 2 0;
#X connect 8 0 7 1;
#X connect 9 0 2 2;
#X connect 10 0 17 0;
#X connect 11 0 45 1;
#X connect 12 0 45 2;
#X connect 13 0 45 3;
#X connect 14 0 45 4;
#X connect 15 0 38 0;
#X connect 16 0 60 0;
#X connect 17 0 29 0;
#X connect 18 0 28 1;
#X connect 19 0 28 2;
#X connect 20 0 28 3;
#X connect 21 0 28 4;
#X connect 22 0 28 0;
#X connect 23 0 45 0;
#X connect 24 0 25 0;
#X connect 25 0 26 0;
#X connect 26 0 50 0;
#X connect 26 1 27 0;
#X connect 28 0 31 0;
#X connect 28 0 62 0;
#X connect 28 0 83 0;
#X connect 30 0 3 0;
#X connect 31 0 61 0;
#X connect 32 0 47 0;
#X connect 33 0 32 1;
#X connect 34 0 43 0;
#X connect 34 0 46 0;
#X connect 35 0 0 0;
#X connect 35 0 56 0;
#X connect 36 0 54 1;
#X connect 37 0 53 1;
#X connect 38 0 16 0;
#X connect 39 0 35 1;
#X connect 40 0 39 0;
#X connect 41 0 30 1;
#X connect 42 0 41 0;
#X connect 43 0 32 0;
#X connect 44 0 43 1;
#X connect 45 0 10 1;
#X connect 46 0 54 0;
#X connect 47 0 53 0;
#X connect 48 0 35 0;
#X connect 49 0 34 1;
#X connect 50 0 34 0;
#X connect 51 0 33 1;
#X connect 52 0 47 1;
#X connect 53 0 58 0;
#X connect 54 0 48 0;
#X connect 55 0 44 0;
#X connect 56 0 55 0;
#X connect 57 0 46 1;
#X connect 58 0 30 0;
#X connect 59 0 38 1;
#X connect 60 0 2 1;
#X connect 61 0 33 0;
#X connect 62 0 15 0;
#X connect 63 0 2 0;
#X connect 64 0 65 0;
#X connect 65 0 100 0;
#X connect 65 1 99 0;
#X connect 65 2 98 0;
#X connect 66 0 68 1;
#X connect 67 0 66 0;
#X connect 68 0 64 0;
#X connect 69 0 65 1;
#X connect 70 0 68 2;
#X connect 71 0 80 1;
#X connect 72 0 79 1;
#X connect 73 0 77 0;
#X connect 73 0 76 0;
#X connect 74 0 15 1;
#X connect 75 0 79 0;
#X connect 76 0 75 1;
#X connect 77 0 78 1;
#X connect 78 0 81 0;
#X connect 79 0 64 1;
#X connect 80 0 68 0;
#X connect 81 0 80 0;
#X connect 82 0 75 0;
#X connect 82 0 78 0;
#X connect 83 0 82 0;
#X connect 84 0 57 0;
#X connect 85 0 36 0;
#X connect 86 0 35 2;
#X connect 87 0 30 2;
#X connect 88 0 41 1;
#X connect 89 0 39 1;
#X connect 90 0 44 1;
#X connect 91 0 51 0;
#X connect 92 0 9 0;
#X connect 93 0 37 0;
#X connect 94 0 52 0;
#X connect 95 0 42 0;
#X connect 96 0 49 0;
#X connect 97 0 59 0;
#X connect 101 0 40 0;
