#N canvas 0 50 450 300 10;
#X obj 31 156 fft-reverb~;
#X obj 32 234 sdac~ \$0;
#X obj 32 117 adc~;
#X obj 122 196 fft-array~ \$0sample-fft;
#X obj 32 196 *~ 0.1;
#X connect 0 0 3 0;
#X connect 0 0 4 0;
#X connect 2 0 0 0;
#X connect 4 0 1 0;
