#N canvas 758 320 1175 958 10;
#X obj 317 22 adc~;
#X obj 434 40 loadbang;
#X msg 434 63 \; pd dsp 1;
#X obj 110 172 bonk~;
#X msg 110 142 minvel 30;
#X obj 110 115 loadbang;
#X obj 171 258 / 60;
#X obj 171 225 - 30;
#X obj 137 197 unpack f f f;
#X obj 458 246 % 12;
#X obj 458 269 / 12;
#X obj 171 292 s \$0-cooked-amp;
#X obj 458 333 list append;
#X text 175 323 comment;
#X obj 85 369 r \$0-cooked-amp;
#X obj 646 279 change;
#X obj 458 138 sigmund~ pitch env;
#X obj 458 219 ftom;
#X obj 458 378 spigot, f 15;
#X floatatom 700 278 5 0 0 0 - - -, f 5;
#X obj 357 191 sel -1500;
#X obj 845 231 noiseanalysis~;
#X obj 458 492 list append;
#X obj 458 531 s \$0-pitch-amp-noise;
#X obj 454 601 r \$0-pitch-amp-noise;
#X obj 738 408 sel 0 1;
#X obj 454 651 oscformat continue;
#X obj 606 651 oscformat start;
#X obj 738 650 oscformat end;
#X msg 738 432 0;
#X obj 738 464 t a a;
#X obj 788 464 t a a;
#X msg 788 439 1;
#X text 852 438 send start before opening spigot \, and send end after
closing spigot;
#X obj 172 893 oscsend 8000;
#X obj 172 866 r \$0-osc;
#X obj 606 749 s \$0-osc;
#X obj 257 866 r \$0-osc;
#X obj 348 866 r \$0-osc;
#X obj 443 866 r \$0-osc;
#X obj 535 866 r \$0-osc;
#X obj 625 866 r \$0-osc;
#X obj 720 866 r \$0-osc;
#X obj 813 866 r \$0-osc;
#X obj 911 866 r \$0-osc;
#X obj 1014 866 r \$0-osc;
#X obj 257 893 oscsend 8001;
#X obj 348 893 oscsend 8002;
#X obj 443 893 oscsend 8003;
#X obj 535 893 oscsend 8004;
#X obj 625 893 oscsend 8005;
#X obj 720 893 oscsend 8006;
#X obj 813 893 oscsend 8007;
#X obj 911 893 oscsend 8008;
#X obj 1014 893 oscsend 8009;
#X obj 335 677 print;
#X obj 553 201 - 60;
#X obj 521 201 / 10;
#X obj 521 238 t a a;
#X floatatom 609 182 5 0 0 0 - - -, f 5;
#X obj 646 258 > 0.6;
#X obj 458 446 ratelimit 40;
#X connect 0 0 3 0;
#X connect 0 0 16 0;
#X connect 0 0 21 0;
#X connect 1 0 2 0;
#X connect 3 1 8 0;
#X connect 4 0 3 0;
#X connect 5 0 4 0;
#X connect 6 0 11 0;
#X connect 7 0 6 0;
#X connect 8 1 7 0;
#X connect 9 0 10 0;
#X connect 10 0 12 0;
#X connect 12 0 18 0;
#X connect 15 0 19 0;
#X connect 15 0 25 0;
#X connect 16 0 17 0;
#X connect 16 1 56 0;
#X connect 16 1 59 0;
#X connect 17 0 9 0;
#X connect 18 0 61 0;
#X connect 20 1 17 0;
#X connect 21 0 22 1;
#X connect 22 0 23 0;
#X connect 24 0 26 0;
#X connect 25 0 29 0;
#X connect 25 1 32 0;
#X connect 26 0 36 0;
#X connect 27 0 36 0;
#X connect 28 0 36 0;
#X connect 29 0 30 0;
#X connect 30 0 28 0;
#X connect 30 1 18 1;
#X connect 31 0 18 1;
#X connect 31 1 27 0;
#X connect 32 0 31 0;
#X connect 35 0 34 0;
#X connect 37 0 46 0;
#X connect 38 0 47 0;
#X connect 39 0 48 0;
#X connect 40 0 49 0;
#X connect 41 0 50 0;
#X connect 42 0 51 0;
#X connect 43 0 52 0;
#X connect 44 0 53 0;
#X connect 45 0 54 0;
#X connect 56 0 57 0;
#X connect 57 0 58 0;
#X connect 58 0 12 1;
#X connect 58 1 60 0;
#X connect 60 0 15 0;
#X connect 61 0 22 0;
