#N canvas 199 708 484 356 10;
#N canvas 0 110 565 454 hann-window 0;
#N canvas 0 50 450 300 (subpatch) 0;
#X array \$0-hann 512 float 0;
#X coords 0 1 511 0 300 100 1;
#X restore 82 311 graph;
#X obj 378 165 osc~;
#X obj 378 190 *~ -0.5;
#X obj 378 214 +~ 0.5;
#X obj 331 247 tabwrite~ \$0-hann;
#X obj 38 173 /;
#X obj 127 142 samplerate~;
#X obj 177 204 swap;
#X obj 177 228 /;
#X obj 49 201 * 1000;
#X obj 38 115 t f b f;
#X msg 173 92 resize \$1;
#X obj 173 116 s \$0-hann;
#X msg 382 130 0;
#X obj 330 131 t f b;
#X text 15 8 calculate Hann window table (variable window size) and
constants window-hz (fundamental frequency of analysis) \, window-sec
and window-msec (analysis window size in seconds and msec).;
#X obj 37 88 r \$0-window-size;
#X obj 49 228 s \$0-window-msec;
#X obj 38 251 s \$0-window-sec;
#X obj 177 253 s \$0-window-hz;
#X obj 330 105 r \$0-window-hz;
#X connect 1 0 2 0;
#X connect 2 0 3 0;
#X connect 3 0 4 0;
#X connect 5 0 9 0;
#X connect 5 0 18 0;
#X connect 6 0 5 1;
#X connect 6 0 7 1;
#X connect 7 0 8 0;
#X connect 7 1 8 1;
#X connect 8 0 19 0;
#X connect 9 0 17 0;
#X connect 10 0 5 0;
#X connect 10 0 7 0;
#X connect 10 1 6 0;
#X connect 10 2 11 0;
#X connect 11 0 12 0;
#X connect 13 0 1 1;
#X connect 14 0 1 0;
#X connect 14 1 4 0;
#X connect 14 1 13 0;
#X connect 16 0 10 0;
#X connect 20 0 14 0;
#X restore 295 42 pd hann-window;
#N canvas 52 71 774 520 tables 0;
#N canvas 0 50 450 300 (subpatch) 0;
#X array \$0-last-real 2048 float 0;
#X coords 0 500 2048 -500 200 150 1;
#X restore 103 15 graph;
#N canvas 0 50 450 300 (subpatch) 0;
#X array \$0-last-imag 2048 float 0;
#X coords 0 500 2048 500 200 150 1;
#X restore 497 6 graph;
#N canvas 0 50 450 300 (subpatch) 0;
#X array \$0-precess-real 2048 float 0;
#X coords 0 500 2048 -500 200 150 1;
#X restore 105 185 graph;
#N canvas 0 50 450 300 (subpatch) 0;
#X array \$0-precess-imag 2048 float 0;
#X coords 0 500 2048 -500 200 150 1;
#X restore 501 178 graph;
#N canvas 0 50 450 300 (subpatch) 0;
#X array \$0-inc-real 2048 float 0;
#X coords 0 1 2048 -1 200 150 1;
#X restore 105 357 graph;
#N canvas 0 50 450 300 (subpatch) 0;
#X array \$0-inc-imag 2048 float 0;
#X coords 0 1 2048 -1 200 150 1;
#X restore 503 342 graph;
#X restore 295 63 pd tables;
#N canvas 300 81 867 775 fft-analysis 0;
#X obj 85 664 *~;
#X obj 35 712 *~;
#X obj 316 148 *~;
#X obj 34 58 *~;
#X obj 34 35 inlet~;
#X obj 34 82 rfft~;
#X obj 35 688 rifft~;
#X obj 35 737 outlet~;
#X obj 277 147 *~;
#X obj 277 198 rsqrt~;
#X obj 105 421 -~;
#X obj 34 663 *~;
#X obj 68 58 tabreceive~ \$0-hann;
#X obj 643 21 loadbang;
#X obj 69 711 tabreceive~ \$0-hann;
#X obj 131 327 *~;
#X msg 644 155 set \$1 4;
#X obj 644 179 block~;
#X obj 125 616 /~ 1000;
#X obj 254 229 *~;
#X obj 113 220 *~;
#X obj 277 171 +~ 1e-020;
#X obj 152 246 lrshift~ 1;
#X obj 313 254 lrshift~ 1;
#X obj 152 272 lrshift~ -1;
#X obj 314 281 lrshift~ -1;
#X obj 292 335 *~;
#X obj 105 475 clip~ 0 1;
#X obj 106 448 *~ 1e+020;
#X obj 105 392 +~;
#X obj 105 508 *~;
#X obj 144 508 lrshift~ 1;
#X obj 251 508 lrshift~ -1;
#X obj 125 540 *~;
#X obj 410 411 -~;
#X obj 410 459 clip~ 0 1;
#X obj 411 435 *~ 1e+020;
#X obj 410 488 *~;
#X obj 449 488 lrshift~ 1;
#X obj 553 487 lrshift~ -1;
#X obj 430 517 *~;
#X obj 430 540 *~ -1;
#X obj 430 563 +~ 1;
#X obj 125 582 +~;
#X obj 255 335 *~;
#X obj 98 327 *~;
#X text 195 476 0 if clean;
#X text 170 541 0 if a neighbor is clean;
#X obj 97 301 +~;
#X obj 130 300 +~;
#X obj 255 309 +~;
#X obj 292 308 +~;
#X text 169 558 1 if all neighbors dirty;
#X text 470 584 1 if a neighbor dirty;
#X text 472 568 0 if all neighbors clean;
#X obj 224 679 lrshift~ -1;
#X obj 224 655 sig~ 1;
#X obj 125 638 *~;
#X obj 220 442 expr $f1*$f1/1250;
#X obj 432 385 expr $f1*$f1/1250;
#X text 362 148 normalize the amplitudes;
#X text 439 253 add neighboring amplitude to this one;
#X text 437 269 and take squared magnitude of result -;
#X text 437 286 do this for both the left neightbor and;
#X text 436 303 the right one;
#X text 94 82 forward real Hann-windowed FT;
#X text 284 658 I had trouble with the DC bin - this zeros it.;
#X text 594 366 adjust threshold to quadratic;
#X text 594 382 units and scale;
#X text 142 389 total incoherence;
#X text 496 414 compare incoherence with the threshold;
#X text 532 511 multiply by left and right;
#X text 531 529 neighbors \, so 0 if any of;
#X text 531 546 the 3 is "clean".;
#X text 497 429 If greater (dirty) \, the "clip" outputs;
#X text 498 444 1 \, otherwise (if clean) \, zero.;
#X text 161 583 add to let in channels;
#X text 159 597 for either criterion;
#X obj 432 360 r \$0-clean;
#X obj 644 133 r \$0-window-size;
#X obj 643 50 \$0;
#X msg 643 75 \; pd dsp 1 \; \$1-window-size 512;
#X obj 220 417 r \$0-dirty;
#X obj 197 616 r \$0-window-size;
#X connect 0 0 6 1;
#X connect 1 0 7 0;
#X connect 2 0 21 0;
#X connect 3 0 5 0;
#X connect 4 0 3 0;
#X connect 5 0 11 0;
#X connect 5 0 8 0;
#X connect 5 0 8 1;
#X connect 5 0 20 0;
#X connect 5 1 0 0;
#X connect 5 1 2 0;
#X connect 5 1 2 1;
#X connect 5 1 19 0;
#X connect 6 0 1 0;
#X connect 8 0 21 0;
#X connect 9 0 20 1;
#X connect 9 0 19 1;
#X connect 10 0 28 0;
#X connect 11 0 6 0;
#X connect 12 0 3 1;
#X connect 13 0 80 0;
#X connect 14 0 1 1;
#X connect 15 0 29 0;
#X connect 16 0 17 0;
#X connect 18 0 57 0;
#X connect 19 0 23 0;
#X connect 19 0 25 0;
#X connect 19 0 50 0;
#X connect 19 0 51 0;
#X connect 20 0 22 0;
#X connect 20 0 24 0;
#X connect 20 0 48 0;
#X connect 20 0 49 0;
#X connect 21 0 9 0;
#X connect 22 0 48 1;
#X connect 23 0 50 1;
#X connect 24 0 49 1;
#X connect 25 0 51 1;
#X connect 26 0 29 1;
#X connect 27 0 30 0;
#X connect 27 0 32 0;
#X connect 27 0 31 0;
#X connect 28 0 27 0;
#X connect 29 0 10 0;
#X connect 29 0 34 0;
#X connect 30 0 33 0;
#X connect 31 0 30 1;
#X connect 32 0 33 1;
#X connect 33 0 43 0;
#X connect 34 0 36 0;
#X connect 35 0 37 0;
#X connect 35 0 39 0;
#X connect 35 0 38 0;
#X connect 36 0 35 0;
#X connect 37 0 40 0;
#X connect 38 0 37 1;
#X connect 39 0 40 1;
#X connect 40 0 41 0;
#X connect 41 0 42 0;
#X connect 42 0 43 1;
#X connect 43 0 18 0;
#X connect 44 0 29 1;
#X connect 45 0 29 0;
#X connect 48 0 45 0;
#X connect 48 0 45 1;
#X connect 49 0 15 0;
#X connect 49 0 15 1;
#X connect 50 0 44 0;
#X connect 50 0 44 1;
#X connect 51 0 26 0;
#X connect 51 0 26 1;
#X connect 55 0 57 1;
#X connect 56 0 55 0;
#X connect 57 0 11 1;
#X connect 57 0 0 1;
#X connect 58 0 10 1;
#X connect 59 0 34 1;
#X connect 78 0 59 0;
#X connect 79 0 16 0;
#X connect 80 0 81 0;
#X connect 82 0 58 0;
#X connect 83 0 18 1;
#X restore 49 130 pd fft-analysis;
#X obj 51 47 inlet~;
#X obj 50 296 outlet;
#X obj 50 229 env~;
#X text 14 5 from 3.audio.examples/I09.sheep.from.goats.pd;
#X obj 181 96 s \$0-dirty;
#X obj 181 35 loadbang;
#X msg 181 65 50;
#X obj 126 186 outlet~;
#X obj 50 262 / 100;
#X obj 51 89 hip~ 500;
#X obj 50 195 hip~ 100;
#X connect 2 0 10 0;
#X connect 2 0 13 0;
#X connect 3 0 12 0;
#X connect 5 0 11 0;
#X connect 8 0 9 0;
#X connect 9 0 7 0;
#X connect 11 0 4 0;
#X connect 12 0 2 0;
#X connect 13 0 5 0;
