#N canvas 598 38 847 551 10;
#X obj 317 22 adc~;
#X obj 64 40 loadbang;
#X msg 64 63 \; pd dsp 1;
#X obj 110 172 bonk~;
#X msg 110 142 minvel 30;
#X obj 110 115 loadbang;
#X obj 182 258 / 60;
#X obj 182 225 - 30;
#X obj 142 197 unpack f f f;
#X obj 316 246 % 12;
#X obj 316 269 / 12;
#X obj 182 521 s \$0-cooked-amp;
#X obj 316 333 list append;
#X obj 422 289 change;
#X obj 316 138 sigmund~ pitch env;
#X obj 316 219 ftom;
#X obj 316 408 spigot, f 15;
#X obj 316 492 list append;
#X obj 316 521 s \$0-pitch-amp-noise;
#X obj 422 312 sel 0 1;
#X msg 422 342 0;
#X msg 472 343 1;
#X obj 432 201 - 60;
#X obj 390 201 / 10;
#X obj 390 238 t a a;
#X obj 422 268 > 0.6;
#X obj 316 446 ratelimit 40;
#X obj 585 308 volume-noiseanalysis~;
#X obj 422 368 t b a;
#X obj 472 368 t a b;
#X msg 567 415 start;
#X msg 566 436 end;
#X text 506 462 unused for now \, but useful for grouping phrases;
#X connect 0 0 3 0;
#X connect 0 0 14 0;
#X connect 0 0 27 0;
#X connect 1 0 2 0;
#X connect 3 1 8 0;
#X connect 4 0 3 0;
#X connect 5 0 4 0;
#X connect 6 0 11 0;
#X connect 7 0 6 0;
#X connect 8 1 7 0;
#X connect 9 0 10 0;
#X connect 10 0 12 0;
#X connect 12 0 16 0;
#X connect 13 0 19 0;
#X connect 14 0 15 0;
#X connect 14 1 22 0;
#X connect 15 0 9 0;
#X connect 16 0 26 0;
#X connect 17 0 18 0;
#X connect 19 0 20 0;
#X connect 19 1 21 0;
#X connect 20 0 28 0;
#X connect 21 0 29 0;
#X connect 22 0 23 0;
#X connect 23 0 24 0;
#X connect 24 0 12 1;
#X connect 24 1 25 0;
#X connect 25 0 13 0;
#X connect 26 0 17 0;
#X connect 27 0 17 1;
#X connect 28 0 31 0;
#X connect 28 1 16 1;
#X connect 29 0 16 1;
#X connect 29 1 30 0;
